<mxfile host="app.diagrams.net" modified="2023-08-19T23:43:36.786Z" agent="Mozilla/5.0 (Windows NT 10.0; Win64; x64) AppleWebKit/537.36 (KHTML, like Gecko) Chrome/115.0.0.0 Safari/537.36 Edg/115.0.1901.203" etag="zbxpX8mwNxzrnd0_KvJN" version="21.3.8" type="device">
  <diagram name="Page-1" id="Yo5C48UuiIIMLQ9KEm2y">
    <mxGraphModel dx="1434" dy="788" grid="1" gridSize="10" guides="1" tooltips="1" connect="1" arrows="1" fold="1" page="1" pageScale="1" pageWidth="827" pageHeight="1169" math="0" shadow="0">
      <root>
        <mxCell id="0" />
        <mxCell id="1" parent="0" />
        <mxCell id="sk8PEvIl0fYaknc_O5IH-18" value="CILMethodNode" style="swimlane;whiteSpace=wrap;html=1;" vertex="1" parent="1">
          <mxGeometry x="10" y="10" width="480" height="380" as="geometry" />
        </mxCell>
        <mxCell id="sk8PEvIl0fYaknc_O5IH-1" value="long" style="rounded=0;whiteSpace=wrap;html=1;fillColor=#ffe6cc;strokeColor=#d79b00;" vertex="1" parent="sk8PEvIl0fYaknc_O5IH-18">
          <mxGeometry x="10" y="90" width="160" height="20" as="geometry" />
        </mxCell>
        <mxCell id="sk8PEvIl0fYaknc_O5IH-2" value="" style="rounded=0;whiteSpace=wrap;html=1;fillColor=#ffe6cc;strokeColor=#d79b00;" vertex="1" parent="sk8PEvIl0fYaknc_O5IH-18">
          <mxGeometry x="10" y="110" width="160" height="20" as="geometry" />
        </mxCell>
        <mxCell id="sk8PEvIl0fYaknc_O5IH-49" style="edgeStyle=entityRelationEdgeStyle;rounded=0;orthogonalLoop=1;jettySize=auto;html=1;exitX=1;exitY=0.5;exitDx=0;exitDy=0;entryX=0;entryY=0.5;entryDx=0;entryDy=0;" edge="1" parent="sk8PEvIl0fYaknc_O5IH-18" source="sk8PEvIl0fYaknc_O5IH-3" target="sk8PEvIl0fYaknc_O5IH-54">
          <mxGeometry relative="1" as="geometry">
            <mxPoint x="610" y="140" as="targetPoint" />
          </mxGeometry>
        </mxCell>
        <mxCell id="sk8PEvIl0fYaknc_O5IH-3" value="StaticObject(List&amp;lt;int&amp;gt;)" style="rounded=0;whiteSpace=wrap;html=1;fillColor=#ffe6cc;strokeColor=#d79b00;" vertex="1" parent="sk8PEvIl0fYaknc_O5IH-18">
          <mxGeometry x="10" y="130" width="160" height="20" as="geometry" />
        </mxCell>
        <mxCell id="sk8PEvIl0fYaknc_O5IH-4" value="" style="rounded=0;whiteSpace=wrap;html=1;fillColor=#f8cecc;strokeColor=#b85450;" vertex="1" parent="sk8PEvIl0fYaknc_O5IH-18">
          <mxGeometry x="10" y="150" width="160" height="20" as="geometry" />
        </mxCell>
        <mxCell id="sk8PEvIl0fYaknc_O5IH-5" value="StaticObject" style="rounded=0;whiteSpace=wrap;html=1;fillColor=#f8cecc;strokeColor=#b85450;" vertex="1" parent="sk8PEvIl0fYaknc_O5IH-18">
          <mxGeometry x="10" y="170" width="160" height="20" as="geometry" />
        </mxCell>
        <mxCell id="sk8PEvIl0fYaknc_O5IH-6" value="" style="rounded=0;whiteSpace=wrap;html=1;fillColor=#d5e8d4;strokeColor=#82b366;" vertex="1" parent="sk8PEvIl0fYaknc_O5IH-18">
          <mxGeometry x="10" y="190" width="160" height="20" as="geometry" />
        </mxCell>
        <mxCell id="sk8PEvIl0fYaknc_O5IH-7" value="int" style="rounded=0;whiteSpace=wrap;html=1;fillColor=#d5e8d4;strokeColor=#82b366;" vertex="1" parent="sk8PEvIl0fYaknc_O5IH-18">
          <mxGeometry x="10" y="210" width="160" height="20" as="geometry" />
        </mxCell>
        <mxCell id="sk8PEvIl0fYaknc_O5IH-8" value="" style="rounded=0;whiteSpace=wrap;html=1;fillColor=#d5e8d4;strokeColor=#82b366;" vertex="1" parent="sk8PEvIl0fYaknc_O5IH-18">
          <mxGeometry x="10" y="230" width="160" height="20" as="geometry" />
        </mxCell>
        <mxCell id="sk8PEvIl0fYaknc_O5IH-11" value="StaticObject" style="rounded=0;whiteSpace=wrap;html=1;fillColor=#dae8fc;strokeColor=#6c8ebf;" vertex="1" parent="sk8PEvIl0fYaknc_O5IH-18">
          <mxGeometry x="10" y="250" width="160" height="20" as="geometry" />
        </mxCell>
        <mxCell id="sk8PEvIl0fYaknc_O5IH-13" value="long" style="rounded=0;whiteSpace=wrap;html=1;fillColor=#ffe6cc;strokeColor=#d79b00;" vertex="1" parent="sk8PEvIl0fYaknc_O5IH-18">
          <mxGeometry x="10" y="70" width="160" height="20" as="geometry" />
        </mxCell>
        <mxCell id="sk8PEvIl0fYaknc_O5IH-15" value="VirtualFrame" style="rounded=0;whiteSpace=wrap;html=1;" vertex="1" parent="sk8PEvIl0fYaknc_O5IH-18">
          <mxGeometry x="10" y="30" width="160" height="40" as="geometry" />
        </mxCell>
        <mxCell id="sk8PEvIl0fYaknc_O5IH-20" value="MethodSymbol" style="swimlane;whiteSpace=wrap;html=1;" vertex="1" parent="sk8PEvIl0fYaknc_O5IH-18">
          <mxGeometry x="320" y="167.5" width="150" height="200" as="geometry" />
        </mxCell>
        <mxCell id="sk8PEvIl0fYaknc_O5IH-25" value="" style="rounded=0;whiteSpace=wrap;html=1;" vertex="1" parent="sk8PEvIl0fYaknc_O5IH-20">
          <mxGeometry x="10" y="50" width="120" height="40" as="geometry" />
        </mxCell>
        <mxCell id="sk8PEvIl0fYaknc_O5IH-23" value="" style="rounded=0;whiteSpace=wrap;html=1;" vertex="1" parent="sk8PEvIl0fYaknc_O5IH-20">
          <mxGeometry x="10" y="105" width="120" height="40" as="geometry" />
        </mxCell>
        <mxCell id="sk8PEvIl0fYaknc_O5IH-21" value="ParameterSymbol" style="rounded=0;whiteSpace=wrap;html=1;" vertex="1" parent="sk8PEvIl0fYaknc_O5IH-20">
          <mxGeometry x="20" y="40" width="120" height="40" as="geometry" />
        </mxCell>
        <mxCell id="sk8PEvIl0fYaknc_O5IH-26" value="defining type" style="rounded=0;whiteSpace=wrap;html=1;" vertex="1" parent="sk8PEvIl0fYaknc_O5IH-20">
          <mxGeometry x="10" y="155" width="120" height="35" as="geometry" />
        </mxCell>
        <mxCell id="sk8PEvIl0fYaknc_O5IH-24" value="LocalSymbol" style="rounded=0;whiteSpace=wrap;html=1;" vertex="1" parent="sk8PEvIl0fYaknc_O5IH-20">
          <mxGeometry x="20" y="100" width="120" height="40" as="geometry" />
        </mxCell>
        <mxCell id="sk8PEvIl0fYaknc_O5IH-30" style="edgeStyle=orthogonalEdgeStyle;rounded=0;orthogonalLoop=1;jettySize=auto;html=1;exitX=0;exitY=0.5;exitDx=0;exitDy=0;entryX=1;entryY=0.5;entryDx=0;entryDy=0;" edge="1" parent="sk8PEvIl0fYaknc_O5IH-18" source="sk8PEvIl0fYaknc_O5IH-27" target="sk8PEvIl0fYaknc_O5IH-29">
          <mxGeometry relative="1" as="geometry" />
        </mxCell>
        <mxCell id="sk8PEvIl0fYaknc_O5IH-27" value="Static analysis" style="rounded=0;whiteSpace=wrap;html=1;" vertex="1" parent="sk8PEvIl0fYaknc_O5IH-18">
          <mxGeometry x="344" y="40" width="120" height="40" as="geometry" />
        </mxCell>
        <mxCell id="sk8PEvIl0fYaknc_O5IH-35" style="edgeStyle=orthogonalEdgeStyle;rounded=0;orthogonalLoop=1;jettySize=auto;html=1;exitX=0;exitY=0.5;exitDx=0;exitDy=0;entryX=1;entryY=0.5;entryDx=0;entryDy=0;curved=1;" edge="1" parent="sk8PEvIl0fYaknc_O5IH-18" source="sk8PEvIl0fYaknc_O5IH-29" target="sk8PEvIl0fYaknc_O5IH-1">
          <mxGeometry relative="1" as="geometry" />
        </mxCell>
        <mxCell id="sk8PEvIl0fYaknc_O5IH-36" style="edgeStyle=orthogonalEdgeStyle;rounded=0;orthogonalLoop=1;jettySize=auto;html=1;exitX=0;exitY=0.5;exitDx=0;exitDy=0;entryX=1;entryY=0.5;entryDx=0;entryDy=0;" edge="1" parent="sk8PEvIl0fYaknc_O5IH-18" source="sk8PEvIl0fYaknc_O5IH-29" target="sk8PEvIl0fYaknc_O5IH-13">
          <mxGeometry relative="1" as="geometry" />
        </mxCell>
        <mxCell id="sk8PEvIl0fYaknc_O5IH-29" value="Add(long, long)" style="rounded=1;whiteSpace=wrap;html=1;" vertex="1" parent="sk8PEvIl0fYaknc_O5IH-18">
          <mxGeometry x="210" y="65" width="90" height="30" as="geometry" />
        </mxCell>
        <mxCell id="sk8PEvIl0fYaknc_O5IH-42" style="edgeStyle=orthogonalEdgeStyle;rounded=0;orthogonalLoop=1;jettySize=auto;html=1;exitX=0;exitY=0.5;exitDx=0;exitDy=0;entryX=1;entryY=0.5;entryDx=0;entryDy=0;" edge="1" parent="sk8PEvIl0fYaknc_O5IH-18" source="sk8PEvIl0fYaknc_O5IH-37" target="sk8PEvIl0fYaknc_O5IH-11">
          <mxGeometry relative="1" as="geometry" />
        </mxCell>
        <mxCell id="sk8PEvIl0fYaknc_O5IH-37" value="getStackType" style="rounded=1;whiteSpace=wrap;html=1;" vertex="1" parent="sk8PEvIl0fYaknc_O5IH-18">
          <mxGeometry x="200" y="247.5" width="90" height="25" as="geometry" />
        </mxCell>
        <mxCell id="sk8PEvIl0fYaknc_O5IH-43" style="edgeStyle=orthogonalEdgeStyle;rounded=0;orthogonalLoop=1;jettySize=auto;html=1;exitX=0;exitY=0.5;exitDx=0;exitDy=0;entryX=1;entryY=0.5;entryDx=0;entryDy=0;" edge="1" parent="sk8PEvIl0fYaknc_O5IH-18" source="sk8PEvIl0fYaknc_O5IH-40" target="sk8PEvIl0fYaknc_O5IH-7">
          <mxGeometry relative="1" as="geometry" />
        </mxCell>
        <mxCell id="sk8PEvIl0fYaknc_O5IH-40" value="getStackType" style="rounded=1;whiteSpace=wrap;html=1;" vertex="1" parent="sk8PEvIl0fYaknc_O5IH-18">
          <mxGeometry x="200" y="207.5" width="90" height="25" as="geometry" />
        </mxCell>
        <mxCell id="sk8PEvIl0fYaknc_O5IH-44" style="edgeStyle=orthogonalEdgeStyle;rounded=0;orthogonalLoop=1;jettySize=auto;html=1;exitX=0;exitY=0.5;exitDx=0;exitDy=0;entryX=1;entryY=0.5;entryDx=0;entryDy=0;" edge="1" parent="sk8PEvIl0fYaknc_O5IH-18" source="sk8PEvIl0fYaknc_O5IH-39" target="sk8PEvIl0fYaknc_O5IH-5">
          <mxGeometry relative="1" as="geometry" />
        </mxCell>
        <mxCell id="sk8PEvIl0fYaknc_O5IH-39" value="getStackType" style="rounded=1;whiteSpace=wrap;html=1;" vertex="1" parent="sk8PEvIl0fYaknc_O5IH-18">
          <mxGeometry x="200" y="167.5" width="90" height="25" as="geometry" />
        </mxCell>
        <mxCell id="sk8PEvIl0fYaknc_O5IH-46" style="edgeStyle=orthogonalEdgeStyle;rounded=0;orthogonalLoop=1;jettySize=auto;html=1;exitX=0;exitY=0.5;exitDx=0;exitDy=0;entryX=1;entryY=0.5;entryDx=0;entryDy=0;" edge="1" parent="sk8PEvIl0fYaknc_O5IH-18" source="sk8PEvIl0fYaknc_O5IH-21" target="sk8PEvIl0fYaknc_O5IH-39">
          <mxGeometry relative="1" as="geometry" />
        </mxCell>
        <mxCell id="sk8PEvIl0fYaknc_O5IH-47" style="edgeStyle=orthogonalEdgeStyle;rounded=0;orthogonalLoop=1;jettySize=auto;html=1;exitX=0;exitY=0.5;exitDx=0;exitDy=0;entryX=1;entryY=0.5;entryDx=0;entryDy=0;" edge="1" parent="sk8PEvIl0fYaknc_O5IH-18" source="sk8PEvIl0fYaknc_O5IH-24" target="sk8PEvIl0fYaknc_O5IH-40">
          <mxGeometry relative="1" as="geometry">
            <Array as="points">
              <mxPoint x="300" y="260" />
              <mxPoint x="300" y="220" />
            </Array>
          </mxGeometry>
        </mxCell>
        <mxCell id="sk8PEvIl0fYaknc_O5IH-48" style="edgeStyle=orthogonalEdgeStyle;rounded=0;orthogonalLoop=1;jettySize=auto;html=1;exitX=0;exitY=0.5;exitDx=0;exitDy=0;entryX=0.5;entryY=1;entryDx=0;entryDy=0;" edge="1" parent="sk8PEvIl0fYaknc_O5IH-18" source="sk8PEvIl0fYaknc_O5IH-26" target="sk8PEvIl0fYaknc_O5IH-37">
          <mxGeometry relative="1" as="geometry" />
        </mxCell>
        <mxCell id="sk8PEvIl0fYaknc_O5IH-53" value="StaticObject" style="swimlane;whiteSpace=wrap;html=1;" vertex="1" parent="sk8PEvIl0fYaknc_O5IH-18">
          <mxGeometry x="349" y="90" width="110" height="70" as="geometry" />
        </mxCell>
        <mxCell id="sk8PEvIl0fYaknc_O5IH-54" value="TypeSymbol" style="rounded=0;whiteSpace=wrap;html=1;" vertex="1" parent="sk8PEvIl0fYaknc_O5IH-53">
          <mxGeometry x="10" y="30" width="90" height="30" as="geometry" />
        </mxCell>
      </root>
    </mxGraphModel>
  </diagram>
</mxfile>
